# xmcd
#
# Track frame offsets:
# 150
# 16311
# 32512
# 47030
# 60914
# 77683
# 95898
# 111408
# 130220
# 143554
# 163513
# 179828
# 197875
# 212756
# 227315
# 251034
# 264343
# 281636
# 296408
# 313264
# 325916
#
# Disc length: 4450 seconds
#
# Revision: 6
# Processed by: cddbd v1.5.2PL0 Copyright (c) Steve Scherf et al.
# Submitted via: TinyPlayer 2.8
#
DISCID=32116015
DTITLE=CCS - A's, B's and Rarities
DYEAR=2004
DGENRE=Blues Rock
TTITLE0=Whole Lotta Love
TTITLE1=Boom Boom
TTITLE2=Walking
TTITLE3=Salome
TTITLE4=Tap Turns on the Water
TTITLE5=Save the World
TTITLE6=Brother
TTITLE7=Mister What You Can't Have I Can Get
TTITLE8=Sixteen Tons
TTITLE9=This Is My Life
TTITLE10=The Band Played the Boogie
TTITLE11=Hang It on Me
TTITLE12=Hurricane Coming
TTITLE13=Dragster
TTITLE14=Sunrise
TTITLE15=Wade in the Water
TTITLE16=Hundred Highways
TTITLE17=Primitive Love
TTITLE18=I Want You Back
TTITLE19=Blues
TTITLE20=If I Never Sing Another Song
EXTD=Location:  - UPC: 724356025325 - Catalogue number: 7243 5 60253 2 5 - Label: EMI Gold - ASIN: B0006HH3HK - Release Date: 2004 12 06 - Discogs: a325864,r1775014 - MUSICBRAINZ_ALBUMID: a0570d48-44e8-44dc-90a4-b80d4f8778aa - AMG: mn0000637478,mw0000471799;
EXTT0=
EXTT1=
EXTT2=
EXTT3=
EXTT4=
EXTT5=
EXTT6=
EXTT7=
EXTT8=
EXTT9=
EXTT10=
EXTT11=
EXTT12=
EXTT13=
EXTT14=
EXTT15=
EXTT16=
EXTT17=
EXTT18=
EXTT19=
EXTT20=
PLAYORDER=
